<svg width="663" height="663" viewBox="0 0 663 663" fill="none" xmlns="http://www.w3.org/2000/svg">
<path d="M132.58 501.1C139.888 501.1 158.593 501.187 158.593 523.111C158.593 545.818 138.322 545.035 132.58 545.035C130.318 545.035 121.27 545.035 118.573 545.035V562H105.349V501.1H118.573V501.187C121.792 501.187 129.013 501.1 132.58 501.1ZM133.015 533.551C136.582 533.551 146.152 534.073 146.152 523.111C146.152 512.584 137.713 512.584 133.276 512.584C130.84 512.584 122.14 512.584 118.573 512.584V533.551C121.531 533.551 131.884 533.551 133.015 533.551ZM209.731 520.414H210.34V513.193H223.564V562H210.34V555.214H209.905C206.599 559.477 201.031 562 191.809 562C171.364 562 169.102 544.165 169.102 537.64C169.102 530.506 171.277 513.193 191.896 513.193C200.944 513.193 206.425 516.064 209.731 520.414ZM195.724 550.69C207.121 550.69 209.47 545.035 209.47 537.64C209.47 531.028 207.121 524.59 195.724 524.59C183.022 524.59 181.717 533.812 181.717 537.64C181.717 541.12 183.109 550.69 195.724 550.69ZM250.073 562H236.936V499.447H250.073V562ZM277.04 562H263.903V499.447H277.04V562Z" fill="white"/>
<path d="M321.678 526.678H352.911V561.565H339.687V552.082H338.991C336.816 557.563 330.987 562 322.026 562C304.539 562 290.445 551.473 290.445 531.115C290.445 511.105 304.539 500.143 322.026 500.143C337.86 500.143 350.214 508.93 352.563 520.588H338.034C335.511 515.977 330.378 513.628 322.026 513.628C311.673 513.628 303.582 519.022 303.582 531.115C303.582 543.208 311.673 548.515 322.026 548.515C332.118 548.515 337.251 544.948 339.078 539.119H321.678V526.678ZM417.264 540.685H378.288C379.245 547.21 383.16 550.429 391.686 550.429C399.603 550.429 403.518 548.254 404.736 545.035H417.525C416.22 555.562 407.694 562 391.686 562C374.982 562 365.499 553.648 365.499 537.379C365.499 521.458 375.243 512.758 391.686 512.758C398.559 512.758 404.127 514.498 408.216 517.369V517.282C417.612 523.72 418.482 533.986 417.786 540.685H417.264ZM391.686 524.329C384.378 524.329 380.376 527.026 378.81 531.985H404.562C403.518 528.331 401.082 524.329 391.686 524.329ZM458.632 513.193C462.112 513.193 464.983 513.976 467.245 514.498L465.157 526.939C463.939 526.591 460.546 525.895 456.37 525.895C446.539 525.895 443.668 533.551 443.668 540.163V562H430.444V513.193H443.668V520.414H444.451C447.235 515.716 450.193 513.193 458.632 513.193ZM490.938 562H477.801V513.541H490.938V562ZM490.938 510.061H477.801V498.229H490.938V510.061ZM556.241 513.193L537.101 537.64L556.241 562H540.581L529.271 547.558L517.961 562H502.388L521.441 537.64L502.388 513.193H517.961L529.271 527.722L540.581 513.193H556.241Z" fill="#2F85F6"/>
<path d="M110.402 633V611.525H113.244V620.344H124.406V611.525H127.248V633H124.406V622.878H113.244V633H110.402ZM136.853 633V611.525H152.38V614.06H139.695V620.637H151.574V623.156H139.695V630.466H152.878V633H136.853ZM159.246 633L167.493 611.525H170.554L179.343 633H176.106L173.601 626.496H164.621L162.263 633H159.246ZM165.442 624.182H172.722L170.481 618.234C169.797 616.428 169.289 614.943 168.957 613.781C168.684 615.158 168.298 616.525 167.8 617.883L165.442 624.182ZM186.296 633V611.525H189.138V630.466H199.714V633H186.296ZM211.15 633V614.06H204.075V611.525H221.096V614.06H213.992V633H211.15ZM228.914 633V611.525H231.756V620.344H242.918V611.525H245.76V633H242.918V622.878H231.756V633H228.914ZM270.628 625.471L273.47 626.188C272.874 628.522 271.8 630.305 270.247 631.535C268.704 632.756 266.815 633.366 264.578 633.366C262.264 633.366 260.379 632.897 258.924 631.96C257.479 631.013 256.375 629.646 255.613 627.858C254.862 626.071 254.486 624.152 254.486 622.102C254.486 619.865 254.91 617.917 255.76 616.257C256.619 614.587 257.835 613.322 259.407 612.463C260.989 611.594 262.728 611.159 264.622 611.159C266.771 611.159 268.577 611.706 270.042 612.8C271.507 613.894 272.528 615.432 273.104 617.414L270.306 618.073C269.808 616.511 269.085 615.373 268.138 614.66C267.191 613.947 265.999 613.591 264.564 613.591C262.913 613.591 261.531 613.986 260.418 614.777C259.315 615.568 258.538 616.633 258.089 617.971C257.64 619.299 257.415 620.671 257.415 622.087C257.415 623.913 257.679 625.51 258.206 626.877C258.743 628.234 259.573 629.25 260.696 629.924C261.82 630.598 263.035 630.935 264.344 630.935C265.936 630.935 267.283 630.476 268.387 629.558C269.49 628.64 270.238 627.277 270.628 625.471ZM279.427 633L287.674 611.525H290.736L299.525 633H296.288L293.783 626.496H284.803L282.445 633H279.427ZM285.623 624.182H292.904L290.663 618.234C289.979 616.428 289.471 614.943 289.139 613.781C288.866 615.158 288.48 616.525 287.982 617.883L285.623 624.182ZM306.639 633V611.525H316.161C318.075 611.525 319.53 611.721 320.526 612.111C321.522 612.492 322.318 613.171 322.914 614.147C323.509 615.124 323.807 616.203 323.807 617.385C323.807 618.908 323.314 620.192 322.328 621.237C321.341 622.282 319.818 622.946 317.757 623.229C318.509 623.591 319.081 623.947 319.471 624.299C320.301 625.061 321.087 626.013 321.83 627.155L325.565 633H321.991L319.149 628.532C318.319 627.243 317.635 626.257 317.098 625.573C316.561 624.89 316.078 624.411 315.648 624.138C315.228 623.864 314.798 623.674 314.359 623.566C314.037 623.498 313.509 623.464 312.777 623.464H309.481V633H306.639ZM309.481 621.003H315.589C316.888 621.003 317.904 620.871 318.636 620.607C319.369 620.334 319.925 619.904 320.306 619.318C320.687 618.723 320.878 618.078 320.878 617.385C320.878 616.369 320.506 615.534 319.764 614.88C319.032 614.226 317.87 613.898 316.278 613.898H309.481V621.003ZM333.134 633V611.525H348.661V614.06H335.975V620.637H347.855V623.156H335.975V630.466H349.159V633H333.134ZM370.068 626.101L372.748 625.866C372.875 626.94 373.168 627.824 373.627 628.518C374.096 629.201 374.819 629.758 375.795 630.188C376.772 630.607 377.87 630.817 379.091 630.817C380.175 630.817 381.132 630.656 381.962 630.334C382.792 630.012 383.407 629.572 383.808 629.016C384.218 628.449 384.423 627.834 384.423 627.17C384.423 626.496 384.228 625.91 383.837 625.412C383.446 624.904 382.802 624.479 381.904 624.138C381.327 623.913 380.053 623.566 378.08 623.098C376.108 622.619 374.726 622.17 373.935 621.75C372.909 621.213 372.143 620.549 371.635 619.758C371.137 618.957 370.888 618.063 370.888 617.077C370.888 615.993 371.195 614.982 371.811 614.045C372.426 613.098 373.324 612.38 374.506 611.892C375.688 611.403 377.001 611.159 378.446 611.159C380.038 611.159 381.44 611.418 382.651 611.936C383.871 612.443 384.809 613.195 385.463 614.191C386.117 615.188 386.469 616.315 386.518 617.575L383.793 617.78C383.647 616.423 383.149 615.397 382.299 614.704C381.459 614.011 380.214 613.664 378.564 613.664C376.845 613.664 375.59 613.981 374.799 614.616C374.018 615.241 373.627 615.998 373.627 616.887C373.627 617.658 373.905 618.293 374.462 618.791C375.009 619.289 376.435 619.802 378.739 620.329C381.054 620.847 382.641 621.301 383.5 621.691C384.75 622.268 385.673 623 386.269 623.889C386.864 624.768 387.162 625.783 387.162 626.936C387.162 628.078 386.835 629.157 386.181 630.173C385.527 631.179 384.584 631.965 383.354 632.531C382.133 633.088 380.756 633.366 379.223 633.366C377.279 633.366 375.649 633.083 374.33 632.517C373.022 631.95 371.991 631.101 371.239 629.968C370.497 628.825 370.107 627.536 370.068 626.101ZM395.903 633V611.525H411.43V614.06H398.745V620.637H410.624V623.156H398.745V630.466H411.928V633H395.903ZM420.698 633V611.525H430.219C432.133 611.525 433.588 611.721 434.585 612.111C435.581 612.492 436.377 613.171 436.972 614.147C437.568 615.124 437.866 616.203 437.866 617.385C437.866 618.908 437.373 620.192 436.386 621.237C435.4 622.282 433.877 622.946 431.816 623.229C432.568 623.591 433.139 623.947 433.53 624.299C434.36 625.061 435.146 626.013 435.888 627.155L439.624 633H436.049L433.208 628.532C432.378 627.243 431.694 626.257 431.157 625.573C430.62 624.89 430.136 624.411 429.707 624.138C429.287 623.864 428.857 623.674 428.418 623.566C428.095 623.498 427.568 623.464 426.836 623.464H423.54V633H420.698ZM423.54 621.003H429.648C430.947 621.003 431.962 620.871 432.695 620.607C433.427 620.334 433.984 619.904 434.365 619.318C434.746 618.723 434.936 618.078 434.936 617.385C434.936 616.369 434.565 615.534 433.823 614.88C433.09 614.226 431.928 613.898 430.337 613.898H423.54V621.003ZM452.715 633L444.394 611.525H447.471L453.052 627.126C453.501 628.376 453.877 629.548 454.18 630.642C454.512 629.47 454.897 628.298 455.337 627.126L461.138 611.525H464.038L455.63 633H452.715ZM471.87 633V611.525H474.712V633H471.87ZM499.859 625.471L502.7 626.188C502.105 628.522 501.03 630.305 499.478 631.535C497.935 632.756 496.045 633.366 493.809 633.366C491.494 633.366 489.61 632.897 488.154 631.96C486.709 631.013 485.606 629.646 484.844 627.858C484.092 626.071 483.716 624.152 483.716 622.102C483.716 619.865 484.141 617.917 484.99 616.257C485.85 614.587 487.066 613.322 488.638 612.463C490.22 611.594 491.958 611.159 493.853 611.159C496.001 611.159 497.808 611.706 499.273 612.8C500.737 613.894 501.758 615.432 502.334 617.414L499.536 618.073C499.038 616.511 498.316 615.373 497.368 614.66C496.421 613.947 495.23 613.591 493.794 613.591C492.144 613.591 490.762 613.986 489.649 614.777C488.545 615.568 487.769 616.633 487.32 617.971C486.87 619.299 486.646 620.671 486.646 622.087C486.646 623.913 486.909 625.51 487.437 626.877C487.974 628.234 488.804 629.25 489.927 629.924C491.05 630.598 492.266 630.935 493.574 630.935C495.166 630.935 496.514 630.476 497.617 629.558C498.721 628.64 499.468 627.277 499.859 625.471ZM511.075 633V611.525H526.602V614.06H513.916V620.637H525.796V623.156H513.916V630.466H527.1V633H511.075ZM534.859 626.101L537.54 625.866C537.667 626.94 537.96 627.824 538.419 628.518C538.887 629.201 539.61 629.758 540.587 630.188C541.563 630.607 542.662 630.817 543.882 630.817C544.966 630.817 545.923 630.656 546.754 630.334C547.584 630.012 548.199 629.572 548.599 629.016C549.009 628.449 549.214 627.834 549.214 627.17C549.214 626.496 549.019 625.91 548.629 625.412C548.238 624.904 547.593 624.479 546.695 624.138C546.119 623.913 544.844 623.566 542.872 623.098C540.899 622.619 539.517 622.17 538.726 621.75C537.701 621.213 536.934 620.549 536.426 619.758C535.928 618.957 535.679 618.063 535.679 617.077C535.679 615.993 535.987 614.982 536.602 614.045C537.217 613.098 538.116 612.38 539.297 611.892C540.479 611.403 541.793 611.159 543.238 611.159C544.83 611.159 546.231 611.418 547.442 611.936C548.663 612.443 549.6 613.195 550.254 614.191C550.909 615.188 551.26 616.315 551.309 617.575L548.585 617.78C548.438 616.423 547.94 615.397 547.09 614.704C546.251 614.011 545.005 613.664 543.355 613.664C541.636 613.664 540.381 613.981 539.59 614.616C538.809 615.241 538.419 615.998 538.419 616.887C538.419 617.658 538.697 618.293 539.254 618.791C539.8 619.289 541.226 619.802 543.531 620.329C545.845 620.847 547.432 621.301 548.292 621.691C549.542 622.268 550.464 623 551.06 623.889C551.656 624.768 551.954 625.783 551.954 626.936C551.954 628.078 551.627 629.157 550.972 630.173C550.318 631.179 549.376 631.965 548.145 632.531C546.924 633.088 545.547 633.366 544.014 633.366C542.071 633.366 540.44 633.083 539.122 632.517C537.813 631.95 536.783 631.101 536.031 629.968C535.289 628.825 534.898 627.536 534.859 626.101Z" fill="#9A9A9A"/>
<path d="M258 47C258 31.536 270.536 19 286 19H387C402.464 19 415 31.536 415 47V421C415 436.464 402.464 449 387 449H286C270.536 449 258 436.464 258 421V47Z" fill="#0052BE"/>
<path fill-rule="evenodd" clip-rule="evenodd" d="M524 156C539.464 156 552 168.536 552 184V285C552 300.464 539.464 313 524 313H150C134.536 313 122 300.464 122 285V184C122 168.536 134.536 156 150 156H524ZM422 195V274H477C488.046 274 497 265.046 497 254V215C497 203.954 488.046 195 477 195H422Z" fill="#0052BE"/>
<path d="M239 47C239 31.536 251.536 19 267 19H368C383.464 19 396 31.536 396 47V421C396 436.464 383.464 449 368 449H267C251.536 449 239 436.464 239 421V47Z" fill="#2F85F6"/>
<path fill-rule="evenodd" clip-rule="evenodd" d="M505 156C520.464 156 533 168.536 533 184V285C533 300.464 520.464 313 505 313H131C115.536 313 103 300.464 103 285V184C103 168.536 115.536 156 131 156H505ZM420 195V274H474C485.046 274 494 265.046 494 254V215C494 203.954 485.046 195 474 195H420Z" fill="#2F85F6"/>
<path d="M299.5 191H250C252.4 205.4 264 207.5 269.5 207.5H294.5L295.5 209.5H269.5C268.7 221.9 281 231 287 231H327.5V217H315.5C316 200.5 306.5 191 299.5 191Z" fill="white"/>
<path d="M355.5 191H405C402.6 205.4 391 207.5 385.5 207.5H360.5L359.5 209.5H385.5C386.3 221.9 374 231 368 231H327.5V217H339.5C339 200.5 348.5 191 355.5 191Z" fill="white"/>
<path d="M341.5 175C341.5 182.732 335.232 189 327.5 189C319.768 189 313.5 182.732 313.5 175C313.5 167.268 319.768 161 327.5 161C335.232 161 341.5 167.268 341.5 175Z" fill="white"/>
<path d="M321.5 186H333.5V240L322 243L321.5 186Z" fill="white"/>
<path d="M328.5 419H327.5L326.5 403L329.5 401L328.5 419Z" fill="white"/>
<path d="M332 372C335 373.501 340.9 377.901 340.5 383.5C340.1 389.1 331.667 396.5 327.5 399.5C325 401 320.1 406.1 324.5 414.5C322.667 413.167 319.2 409.4 320 405C320.785 400.681 322.919 398.854 324.416 397.572L324.5 397.5C326.833 395.5 331.9 391.1 333.5 389.5C335.5 387.5 337.5 383 335 380.5C333.001 378.501 332.167 378.001 332 378V372Z" fill="white"/>
<path d="M329.5 390.5L326.5 392.5L325 349L331 347.5L329.5 390.5Z" fill="white"/>
<path d="M334.5 296.5C342 298.667 357.7 305.701 360.5 316.5C363.3 327.3 356 337 348 339C340 341 325 344.5 320.5 348.5C317 352 309.5 358 323 367V374C317 371.5 305.4 363.9 307 353.5C308.6 343.1 318.333 338.834 323 338C329.333 336.334 342.8 332.1 346 328.5C350 324 350 317.5 346 314C342.8 311.2 337 308.834 334.5 308V296.5Z" fill="white"/>
<path d="M322 258.5C324.833 258.167 331 257.9 333 259.5L331 332.5L325 334.5L322 258.5Z" fill="white"/>
<path fill-rule="evenodd" clip-rule="evenodd" d="M336 243C348.8 239.801 359.667 249 363.5 254C361 254.834 354.8 256.8 350 258C344 259.5 342 259 336 256.5C331.2 254.5 325 255 322.5 255.5C311 258.5 306.5 263.5 304.5 266C302.5 268.5 299.5 275 301.5 281C303.1 285.8 314.833 290.667 320.5 292.5V304C315.5 303.5 303.2 300.1 294 290.5C282.5 278.5 291.5 265 299.5 258C307.5 251 320 247 336 243ZM353 249.834C350.538 245.918 346.641 246.897 345 247.876C346.477 250.226 350.949 250.161 353 249.834Z" fill="white"/>
<path d="M474 205C480.627 205 486 210.373 486 217V218H447.366C445.507 218 444 219.343 444 221V247C444 248.657 445.507 250 447.366 250H465.317C467.176 250 468.683 248.657 468.683 247V244C468.683 242.343 467.176 241 465.317 241H460.829V233H486V251C486 257.627 480.627 263 474 263H448C441.373 263 436 257.627 436 251V217C436 210.373 441.373 205 448 205H474Z" fill="#0052BE"/>
<path d="M467 205C473.627 205 479 210.373 479 217V218H445C443.343 218 442 219.343 442 221V247C442 248.657 443.343 250 445 250H461C462.657 250 464 248.657 464 247V244C464 242.343 462.657 241 461 241H457V233H479V251C479 257.627 473.627 263 467 263H441C434.373 263 429 257.627 429 251V217C429 210.373 434.373 205 441 205H467Z" fill="#2F85F6"/>
</svg>
